<svg xmlns="http://www.w3.org/2000/svg" width="1280" height="224" viewBox="0 0 1280 224" role="img" aria-labelledby="title desc">
  <title id="title">SchemaFlow logo</title>
  <desc id="desc">A schema diagram mark with connected table nodes and the SchemaFlow wordmark.</desc>
  <g transform="translate(38 30)">
    <rect x="4" y="0" width="58" height="48" rx="13" fill="#22C7A9"/>
    <rect x="118" y="0" width="58" height="48" rx="13" fill="#6B9BFF"/>
    <rect x="4" y="116" width="58" height="48" rx="13" fill="#FFD45A"/>
    <rect x="118" y="116" width="58" height="48" rx="13" fill="#FF666E"/>
    <rect x="64" y="58" width="58" height="48" rx="13" fill="#2AD0B3"/>

    <g opacity="0.88" stroke="#FFFFFF" stroke-width="5" stroke-linecap="round">
      <path d="M18 17H48"/>
      <path d="M18 31H38"/>
      <path d="M132 17H162"/>
      <path d="M132 31H152"/>
      <path d="M78 75H108"/>
      <path d="M78 89H98"/>
      <path d="M18 133H48"/>
      <path d="M18 147H38"/>
      <path d="M132 133H162"/>
      <path d="M132 147H152"/>
    </g>

    <path
      d="M62 24H122C143 24 154 36 154 54V61C154 79 143 90 122 90H92C72 90 62 101 62 119V140"
      fill="none"
      stroke="#F8FAFC"
      stroke-width="14"
      stroke-linecap="round"
      stroke-linejoin="round"
    />
    <path
      d="M62 140H118"
      fill="none"
      stroke="#F8FAFC"
      stroke-width="14"
      stroke-linecap="round"
    />
  </g>

  <text
    x="246"
    y="143"
    fill="#FFFFFF"
    font-family="Arial, Helvetica, sans-serif"
    font-size="88"
    font-weight="800"
    letter-spacing="0"
  >SchemaFlow</text>
</svg>
